<svg width="91" height="24" viewBox="0 0 91 24" fill="none" xmlns="http://www.w3.org/2000/svg">
<path d="M5.52 19C5.81867 19.0853 6.20267 19.1493 6.672 19.192C7.14133 19.2133 7.58933 19.224 8.016 19.224C8.86933 19.224 9.57333 19.0533 10.128 18.712C10.704 18.3493 10.992 17.7947 10.992 17.048C10.992 16.344 10.7573 15.8427 10.288 15.544C9.81867 15.2453 9.104 15.096 8.144 15.096H5.52V19ZM5.52 11.192H7.856C8.77333 11.192 9.43467 11.0213 9.84 10.68C10.2667 10.3387 10.48 9.83733 10.48 9.176C10.48 8.6 10.2347 8.14133 9.744 7.8C9.27467 7.45867 8.56 7.288 7.6 7.288C7.28 7.288 6.90667 7.29867 6.48 7.32C6.07467 7.34133 5.75467 7.37333 5.52 7.416V11.192ZM7.6 23.512C7.23733 23.512 6.81067 23.5013 6.32 23.48C5.82933 23.4587 5.31733 23.416 4.784 23.352C4.272 23.288 3.76 23.2027 3.248 23.096C2.736 23.0107 2.26667 22.8827 1.84 22.712C0.666667 22.264 0.0800002 21.4853 0.0800002 20.376V5.432C0.0800002 4.984 0.197333 4.64267 0.432 4.408C0.688 4.152 1.02933 3.94933 1.456 3.8C2.18133 3.544 3.088 3.36267 4.176 3.256C5.264 3.128 6.384 3.064 7.536 3.064C10.2667 3.064 12.368 3.52267 13.84 4.44C15.312 5.35733 16.048 6.776 16.048 8.696C16.048 9.656 15.7707 10.488 15.216 11.192C14.6613 11.8747 13.9147 12.376 12.976 12.696C14.0427 12.9947 14.928 13.5387 15.632 14.328C16.3573 15.1173 16.72 16.1093 16.72 17.304C16.72 19.416 15.9307 20.984 14.352 22.008C12.7947 23.0107 10.544 23.512 7.6 23.512ZM25.0125 22.968C24.7778 23.0107 24.4258 23.064 23.9565 23.128C23.5085 23.2133 23.0498 23.256 22.5805 23.256C22.1112 23.256 21.6845 23.224 21.3005 23.16C20.9378 23.096 20.6285 22.968 20.3725 22.776C20.1165 22.584 19.9138 22.328 19.7645 22.008C19.6365 21.6667 19.5725 21.2293 19.5725 20.696V2.136C19.8072 2.09333 20.1485 2.04 20.5965 1.976C21.0658 1.89067 21.5352 1.848 22.0045 1.848C22.4738 1.848 22.8898 1.88 23.2525 1.944C23.6365 2.008 23.9565 2.136 24.2125 2.328C24.4685 2.52 24.6605 2.78667 24.7885 3.128C24.9378 3.448 25.0125 3.87467 25.0125 4.408V22.968ZM44.5413 15.224C44.5413 16.5467 44.3386 17.7307 43.9333 18.776C43.5279 19.8 42.9519 20.664 42.2053 21.368C41.4799 22.072 40.6053 22.6053 39.5813 22.968C38.5573 23.3307 37.4159 23.512 36.1573 23.512C34.8986 23.512 33.7573 23.32 32.7333 22.936C31.7093 22.552 30.8239 22.008 30.0773 21.304C29.3519 20.5787 28.7866 19.704 28.3813 18.68C27.9759 17.656 27.7733 16.504 27.7733 15.224C27.7733 13.9653 27.9759 12.824 28.3813 11.8C28.7866 10.776 29.3519 9.912 30.0773 9.208C30.8239 8.48267 31.7093 7.928 32.7333 7.544C33.7573 7.16 34.8986 6.968 36.1573 6.968C37.4159 6.968 38.5573 7.17067 39.5813 7.576C40.6053 7.96 41.4799 8.51467 42.2053 9.24C42.9519 9.944 43.5279 10.808 43.9333 11.832C44.3386 12.856 44.5413 13.9867 44.5413 15.224ZM33.3413 15.224C33.3413 16.5253 33.5866 17.528 34.0773 18.232C34.5893 18.9147 35.2933 19.256 36.1892 19.256C37.0853 19.256 37.7679 18.904 38.2373 18.2C38.7279 17.496 38.9733 16.504 38.9733 15.224C38.9733 13.944 38.7279 12.9627 38.2373 12.28C37.7466 11.576 37.0533 11.224 36.1573 11.224C35.2613 11.224 34.5679 11.576 34.0773 12.28C33.5866 12.9627 33.3413 13.944 33.3413 15.224Z" fill="#262633"/>
<path d="M63.9313 11.448H68.6673L66.8113 20.664C65.6806 21.5387 64.3686 22.2107 62.8753 22.68C61.3819 23.1493 59.8353 23.384 58.2353 23.384C55.9953 23.384 54.0433 22.9787 52.3793 22.168C50.7153 21.3573 49.4246 20.216 48.5073 18.744C47.6113 17.272 47.1633 15.576 47.1633 13.656C47.1633 11.1173 47.7499 8.824 48.9233 6.776C50.0966 4.728 51.7499 3.128 53.8833 1.976C56.0166 0.802666 58.4699 0.216 61.2433 0.216C63.3766 0.216 65.2219 0.546666 66.7793 1.208C68.3579 1.86933 69.6273 2.84 70.5873 4.12L66.8753 7.128C66.1286 6.25333 65.2859 5.624 64.3472 5.24C63.4086 4.83467 62.2993 4.632 61.0193 4.632C59.3126 4.632 57.8086 5.016 56.5073 5.784C55.2059 6.53067 54.1926 7.56533 53.4673 8.888C52.7633 10.2107 52.4113 11.6933 52.4113 13.336C52.4113 15.064 52.9659 16.44 54.0753 17.464C55.2059 18.4667 56.8166 18.968 58.9073 18.968C60.2299 18.968 61.4673 18.7013 62.6193 18.168L63.9313 11.448ZM79.8188 23.256C78.0908 23.256 76.5654 22.936 75.2428 22.296C73.9414 21.656 72.9281 20.76 72.2028 19.608C71.4988 18.4347 71.1468 17.08 71.1468 15.544C71.1468 13.6453 71.5948 11.9387 72.4908 10.424C73.3868 8.90933 74.6241 7.71467 76.2028 6.84C77.7814 5.96533 79.5628 5.528 81.5468 5.528C83.2961 5.528 84.8214 5.848 86.1228 6.488C87.4241 7.128 88.4268 8.03467 89.1308 9.208C89.8561 10.36 90.2188 11.704 90.2188 13.24C90.2188 15.1387 89.7708 16.8453 88.8748 18.36C88.0001 19.8747 86.7628 21.0693 85.1628 21.944C83.5841 22.8187 81.8028 23.256 79.8188 23.256ZM80.1388 19.128C81.0988 19.128 81.9628 18.8933 82.7308 18.424C83.4988 17.9333 84.0961 17.2613 84.5228 16.408C84.9494 15.5547 85.1628 14.5733 85.1628 13.464C85.1628 12.2907 84.8214 11.3627 84.1388 10.68C83.4561 9.99733 82.4961 9.656 81.2588 9.656C80.2774 9.656 79.4028 9.90133 78.6348 10.392C77.8668 10.8613 77.2694 11.5227 76.8428 12.376C76.4161 13.2293 76.2028 14.2107 76.2028 15.32C76.2028 16.4933 76.5441 17.4213 77.2268 18.104C77.9308 18.7867 78.9014 19.128 80.1388 19.128Z" fill="#03C2EC"/>
</svg>
